<svg width="48" height="48" viewBox="0 0 48 48" fill="none" xmlns="http://www.w3.org/2000/svg">
<path opacity="0.2" d="M40.5 9H7.5C7.10218 9 6.72064 9.15804 6.43934 9.43934C6.15804 9.72064 6 10.1022 6 10.5V40.5L12 37.5L18 40.5L24 37.5L30 40.5L36 37.5L42 40.5V10.5C42 10.1022 41.842 9.72064 41.5607 9.43934C41.2794 9.15804 40.8978 9 40.5 9ZM21 30H12V18H21V30Z" fill="#334FDC"/>
<path d="M40.5 7.5H7.5C6.70435 7.5 5.94129 7.81607 5.37868 8.37868C4.81607 8.94129 4.5 9.70435 4.5 10.5V40.5C4.50014 40.7557 4.56561 41.007 4.69022 41.2303C4.81482 41.4535 4.99442 41.6412 5.21195 41.7755C5.42948 41.9098 5.67773 41.9863 5.93314 41.9977C6.18854 42.0091 6.44262 41.955 6.67125 41.8406L12 39.1763L17.3287 41.8406C17.5371 41.9449 17.767 41.9992 18 41.9992C18.233 41.9992 18.4629 41.9449 18.6713 41.8406L24 39.1763L29.3288 41.8406C29.5371 41.9449 29.767 41.9992 30 41.9992C30.233 41.9992 30.4629 41.9449 30.6712 41.8406L36 39.1763L41.3288 41.8406C41.5574 41.955 41.8115 42.0091 42.0669 41.9977C42.3223 41.9863 42.5705 41.9098 42.7881 41.7755C43.0056 41.6412 43.1852 41.4535 43.3098 41.2303C43.4344 41.007 43.4999 40.7557 43.5 40.5V10.5C43.5 9.70435 43.1839 8.94129 42.6213 8.37868C42.0587 7.81607 41.2957 7.5 40.5 7.5ZM40.5 38.0737L36.6712 36.1575C36.4629 36.0532 36.233 35.9989 36 35.9989C35.767 35.9989 35.5371 36.0532 35.3288 36.1575L30 38.8237L24.6712 36.1575C24.4629 36.0532 24.233 35.9989 24 35.9989C23.767 35.9989 23.5371 36.0532 23.3288 36.1575L18 38.8237L12.6713 36.1575C12.4629 36.0532 12.233 35.9989 12 35.9989C11.767 35.9989 11.5371 36.0532 11.3287 36.1575L7.5 38.0737V10.5H40.5V38.0737ZM25.5 21C25.5 20.6022 25.658 20.2206 25.9393 19.9393C26.2206 19.658 26.6022 19.5 27 19.5H36C36.3978 19.5 36.7794 19.658 37.0607 19.9393C37.342 20.2206 37.5 20.6022 37.5 21C37.5 21.3978 37.342 21.7794 37.0607 22.0607C36.7794 22.342 36.3978 22.5 36 22.5H27C26.6022 22.5 26.2206 22.342 25.9393 22.0607C25.658 21.7794 25.5 21.3978 25.5 21ZM25.5 27C25.5 26.6022 25.658 26.2206 25.9393 25.9393C26.2206 25.658 26.6022 25.5 27 25.5H36C36.3978 25.5 36.7794 25.658 37.0607 25.9393C37.342 26.2206 37.5 26.6022 37.5 27C37.5 27.3978 37.342 27.7794 37.0607 28.0607C36.7794 28.342 36.3978 28.5 36 28.5H27C26.6022 28.5 26.2206 28.342 25.9393 28.0607C25.658 27.7794 25.5 27.3978 25.5 27ZM12 31.5H21C21.3978 31.5 21.7794 31.342 22.0607 31.0607C22.342 30.7794 22.5 30.3978 22.5 30V18C22.5 17.6022 22.342 17.2206 22.0607 16.9393C21.7794 16.658 21.3978 16.5 21 16.5H12C11.6022 16.5 11.2206 16.658 10.9393 16.9393C10.658 17.2206 10.5 17.6022 10.5 18V30C10.5 30.3978 10.658 30.7794 10.9393 31.0607C11.2206 31.342 11.6022 31.5 12 31.5ZM13.5 19.5H19.5V28.5H13.5V19.5Z" fill="#334FDC"/>
</svg>
