<svg width="48" height="48" viewBox="0 0 48 48" fill="none" xmlns="http://www.w3.org/2000/svg">
<path d="M17.25 45H30.75C32.5402 45 34.2571 44.2888 35.523 43.023C36.7888 41.7571 37.5 40.0402 37.5 38.25C37.5 36.4598 36.7888 34.7429 35.523 33.477C34.2571 32.2112 32.5402 31.5 30.75 31.5H17.25C15.4598 31.5 13.7429 32.2112 12.477 33.477C11.2112 34.7429 10.5 36.4598 10.5 38.25C10.5 40.0402 11.2112 41.7571 12.477 43.023C13.7429 44.2888 15.4598 45 17.25 45ZM34.5 38.25C34.5 39.2446 34.1049 40.1984 33.4016 40.9016C32.6984 41.6049 31.7446 42 30.75 42H25.5V34.5H30.75C31.7446 34.5 32.6984 34.8951 33.4016 35.5984C34.1049 36.3016 34.5 37.2554 34.5 38.25ZM17.25 34.5H22.5V42H17.25C16.2554 42 15.3016 41.6049 14.5983 40.9016C13.8951 40.1984 13.5 39.2446 13.5 38.25C13.5 37.2554 13.8951 36.3016 14.5983 35.5984C15.3016 34.8951 16.2554 34.5 17.25 34.5ZM22.5 9.21L12.96 18.75C11.7677 20.0296 11.1186 21.722 11.1494 23.4707C11.1803 25.2194 11.8887 26.8879 13.1254 28.1246C14.3621 29.3613 16.0306 30.0697 17.7793 30.1006C19.528 30.1314 21.2204 29.4823 22.5 28.29L32.04 18.75C33.2323 17.4704 33.8814 15.778 33.8506 14.0293C33.8197 12.2806 33.1113 10.6121 31.8746 9.3754C30.6379 8.13869 28.9694 7.43028 27.2207 7.39943C25.472 7.36857 23.7796 8.01768 22.5 9.21ZM20.385 26.175C19.6809 26.8891 18.7219 27.2942 17.719 27.3013C16.7162 27.3083 15.7516 26.9167 15.0375 26.2125C14.3234 25.5084 13.9183 24.5494 13.9112 23.5465C13.9042 22.5437 14.2959 21.5791 15 20.865L18.72 17.145L24.09 22.5L20.385 26.175ZM30 16.635L26.28 20.355L20.91 15L24.615 11.295C25.3231 10.5809 26.2859 10.1774 27.2916 10.1731C28.2973 10.1689 29.2634 10.5644 29.9775 11.2725C30.6916 11.9806 31.0951 12.9434 31.0994 13.9491C31.1036 14.9548 30.7081 15.9209 30 16.635ZM15 3C14.6022 3 14.2206 3.15804 13.9393 3.43934C13.658 3.72064 13.5 4.10218 13.5 4.5V6H12C11.6022 6 11.2206 6.15804 10.9393 6.43934C10.658 6.72064 10.5 7.10218 10.5 7.5C10.5 7.89782 10.658 8.27936 10.9393 8.56066C11.2206 8.84196 11.6022 9 12 9H13.5V10.5C13.5 10.8978 13.658 11.2794 13.9393 11.5607C14.2206 11.842 14.6022 12 15 12C15.3978 12 15.7794 11.842 16.0607 11.5607C16.342 11.2794 16.5 10.8978 16.5 10.5V9H18C18.3978 9 18.7794 8.84196 19.0607 8.56066C19.342 8.27936 19.5 7.89782 19.5 7.5C19.5 7.10218 19.342 6.72064 19.0607 6.43934C18.7794 6.15804 18.3978 6 18 6H16.5V4.5C16.5 4.10218 16.342 3.72064 16.0607 3.43934C15.7794 3.15804 15.3978 3 15 3ZM33 21C32.6022 21 32.2206 21.158 31.9393 21.4393C31.658 21.7206 31.5 22.1022 31.5 22.5V24H30C29.6022 24 29.2206 24.158 28.9393 24.4393C28.658 24.7206 28.5 25.1022 28.5 25.5C28.5 25.8978 28.658 26.2794 28.9393 26.5607C29.2206 26.842 29.6022 27 30 27H31.5V28.5C31.5 28.8978 31.658 29.2794 31.9393 29.5607C32.2206 29.842 32.6022 30 33 30C33.3978 30 33.7794 29.842 34.0607 29.5607C34.342 29.2794 34.5 28.8978 34.5 28.5V27H36C36.3978 27 36.7794 26.842 37.0607 26.5607C37.342 26.2794 37.5 25.8978 37.5 25.5C37.5 25.1022 37.342 24.7206 37.0607 24.4393C36.7794 24.158 36.3978 24 36 24H34.5V22.5C34.5 22.1022 34.342 21.7206 34.0607 21.4393C33.7794 21.158 33.3978 21 33 21Z" fill="#C02636"/>
<path d="M34.5 38.25C34.5 39.2446 34.1049 40.1984 33.4016 40.9016C32.6984 41.6049 31.7446 42 30.75 42H25.5V34.5H30.75C31.7446 34.5 32.6984 34.8951 33.4016 35.5984C34.1049 36.3016 34.5 37.2554 34.5 38.25Z" fill="#C02636" fill-opacity="0.2"/>
<path d="M20.385 26.175C19.6809 26.8891 18.7219 27.2942 17.719 27.3013C16.7162 27.3083 15.7516 26.9167 15.0375 26.2125C14.3234 25.5084 13.9183 24.5494 13.9112 23.5465C13.9042 22.5437 14.2959 21.5791 15 20.865L18.72 17.145L24.09 22.5L20.385 26.175Z" fill="#C02636" fill-opacity="0.2"/>
</svg>
